<!-- icon666.com - MILLIONS vector ICONS FREE --><svg fill="#c7c7c7" version="1.1" id="Capa_1" xmlns="http://www.w3.org/2000/svg" xmlns:xlink="http://www.w3.org/1999/xlink" x="0px" y="0px" viewBox="0 0 512.035 512.035" style="enable-background:new 0 0 512.035 512.035;" xml:space="preserve"><g><g><path d="M64.035,0.017c-35.332,0.035-63.965,28.668-64,64v384h21.333v-384c0-23.564,19.103-42.667,42.667-42.667h170.667V0.017 H64.035z"></path></g></g><g><g><path d="M66.04,405.351h232.661v-21.333H66.04c-30.905-0.536-57.931,20.72-64.693,50.88c-0.894,4.292-1.346,8.664-1.347,13.048 c-0.01,35.376,28.659,64.062,64.035,64.072h234.667v-21.333H64.035c-2.959-0.005-5.909-0.317-8.804-0.932 c-23.085-4.901-37.826-27.589-32.924-50.674C27.044,418.889,45.31,404.802,66.04,405.351z"></path></g></g><g><g><rect x="64.035" y="10.684" width="21.333" height="384"></rect></g></g><g><g><path d="M138.702,64.017c-5.891,0-10.667,4.776-10.667,10.667v53.333h21.333V85.351h42.667V64.017H138.702z"></path></g></g><g><g><path d="M149.368,192.017v-32h-21.333v42.667c0,5.891,4.776,10.667,10.667,10.667h42.667v-21.333H149.368z"></path></g></g><g><g><rect x="128.035" y="149.351" width="53.333" height="21.333"></rect></g></g><g><g><rect x="128.035" y="245.351" width="21.333" height="21.333"></rect></g></g><g><g><rect x="170.702" y="245.351" width="21.333" height="21.333"></rect></g></g><g><g><rect x="138.702" y="437.351" width="160" height="21.333"></rect></g></g><g><g><rect x="96.035" y="437.351" width="21.333" height="21.333"></rect></g></g><g><g><rect x="352.035" y="288.017" width="21.333" height="64"></rect></g></g><g><g><path d="M362.702,0.017c-82.475,0-149.333,66.859-149.333,149.333s66.859,149.333,149.333,149.333 c82.438-0.088,149.245-66.895,149.333-149.333C512.035,66.876,445.176,0.017,362.702,0.017z M362.702,277.351 c-70.692,0-128-57.308-128-128s57.308-128,128-128c70.661,0.076,127.924,57.339,128,128 C490.702,220.043,433.394,277.351,362.702,277.351z"></path></g></g><g><g><path d="M362.702,341.351c-17.673,0-32,14.327-32,32v106.667c0,17.673,14.327,32,32,32s32-14.327,32-32V373.351 C394.702,355.678,380.375,341.351,362.702,341.351z M373.368,480.017c0,5.891-4.776,10.667-10.667,10.667 s-10.667-4.776-10.667-10.667V373.351c0-5.891,4.776-10.667,10.667-10.667s10.667,4.776,10.667,10.667V480.017z"></path></g></g><g><g><rect x="352.035" y="138.684" width="21.333" height="21.333"></rect></g></g><g><g><rect x="405.368" y="138.684" width="21.333" height="21.333"></rect></g></g><g><g><rect x="298.702" y="138.684" width="21.333" height="21.333"></rect></g></g></svg>